<svg xmlns="http://www.w3.org/2000/svg" width="24" height="24" viewBox="0 0 24 24">
    <g fill="none" fill-rule="evenodd" stroke-linecap="round" stroke-linejoin="round">
        <g stroke="#ED1C24">
            <g>
                <path d="M11.831.5C5.583.5.5 5.583.5 11.832c0 6.248 5.083 11.331 11.331 11.331 6.248 0 11.332-5.083 11.332-11.331C23.163 5.583 18.079.5 11.831.5z" transform="translate(-59 -304) translate(59 304)"/>
                <path d="M19.371 20.283c-2.457-1.023-4.845-2.202-5.075-2.94v-.994c.657-.672 1.175-1.609 1.481-2.706.732-.513.924-1.579.311-2.334V9.086c0-2.295-1.279-3.866-4.2-3.866-2.847 0-4.202 1.571-4.202 3.866v2.224c-.61.752-.42 1.818.31 2.332.307 1.098.825 2.035 1.482 2.707v.993c-.232.746-2.468 1.85-4.957 2.882" transform="translate(-59 -304) translate(59 304)"/>
            </g>
        </g>
    </g>
</svg>
