<svg xmlns="http://www.w3.org/2000/svg" width="24" height="21" viewBox="0 0 24 21">
    <g fill="none" fill-rule="evenodd" stroke-linecap="round" stroke-linejoin="round">
        <g stroke="#404040">
            <g>
                <path d="M3.807 3.462l2.075 9.092-.008.023-.553 1.97c-.09.436.247.843.69.843H20.29M22.78 3.462H3.808l.489-2.292C4.213.78 3.865.5 3.464.5H.5" transform="translate(-59 -563) translate(59 563)"/>
                <path d="M5.881 12.554l14.195-1.536c.396 0 .738-.27.828-.654l2.311-8.488M6.849 17.365c-.838 0-1.517.676-1.517 1.509 0 .834.679 1.51 1.517 1.51.836 0 1.515-.676 1.515-1.51 0-.833-.68-1.51-1.515-1.51zM18.773 17.365c-.837 0-1.516.676-1.516 1.509 0 .834.679 1.51 1.516 1.51s1.516-.676 1.516-1.51c0-.833-.68-1.51-1.516-1.51z" transform="translate(-59 -563) translate(59 563)"/>
            </g>
        </g>
    </g>
</svg>
