<svg xmlns="http://www.w3.org/2000/svg" xmlns:xlink="http://www.w3.org/1999/xlink" width="44" height="44" viewBox="0 0 44 44">
    <defs>
        <path id="5lrq49jr4a" d="M28.747 11C31.092 11 33 12.906 33 15.251v13.497C33 31.094 31.092 33 28.748 33H15.25C12.906 33 11 31.094 11 28.748V15.25C11 12.906 12.906 11 15.251 11h13.496zm-12.32 8.742h-3.285v9.006c0 1.164.945 2.106 2.109 2.106h13.495c1.162 0 2.108-.942 2.108-2.106v-9.006H27.57c.286.696.447 1.46.447 2.257 0 3.316-2.698 6.017-6.016 6.017s-6.016-2.7-6.016-6.017c0-.798.159-1.56.442-2.257zM22 18.127c-1.292 0-2.435.639-3.14 1.614-.458.636-.732 1.414-.733 2.257-.002 2.135 1.736 3.873 3.87 3.873 2.135 0 3.874-1.737 3.874-3.872 0-.843-.275-1.621-.732-2.257-.703-.976-1.847-1.615-3.139-1.615zm8.453-4.593l-.485.001-3.244.01.012 3.73 3.717-.013v-3.728z"/>
    </defs>
    <g fill="none" fill-rule="evenodd">
        <g>
            <g>
                <g transform="translate(-1059 -1977) translate(0 1724) translate(1059 253)">
                    <path d="M0 0H44V44H0z"/>
                    <use fill="#F2F2F3" xlink:href="#5lrq49jr4a"/>
                </g>
            </g>
        </g>
    </g>
</svg>
