<?xml version="1.0" encoding="UTF-8"?>
<svg width="36px" height="36px" viewBox="0 0 36 36" version="1.1" xmlns="http://www.w3.org/2000/svg" xmlns:xlink="http://www.w3.org/1999/xlink">
    <title>DD388C3A-D801-40FD-A7C6-DEF924438660</title>
    <defs>
        <path d="M24.5151982,11.9655106 L24.471955,11.936003 C23.5782613,11.0655298 22.526009,10.6524238 21.3151982,10.7114389 L21.271955,10.6229162 L21.3007838,10.6081624 C22.3962793,10.3573481 23.044928,10.09178 23.2467298,9.79670433 C23.3043874,9.56064379 23.2323154,9.42785973 22.9872703,9.39835217 C22.4395226,9.47212109 21.9206036,9.59015136 21.4737568,9.78195055 C22.0503334,9.39835217 22.2665496,9.13278406 22.1368199,9 C21.5746577,9.01475378 20.9548379,9.30982946 20.3206036,9.89998082 C20.5512343,9.48687487 20.6521352,9.25081433 20.5944775,9.22130676 C20.2773604,9.42785973 20.0179009,9.66392028 19.7872703,9.9147346 C19.2971802,10.4753784 18.907991,10.9917608 18.6052883,11.4638819 L18.5908739,11.4933895 C17.8269099,12.7769687 17.2791622,14.0605479 16.9620451,15.3736347 L16.8467298,15.4769111 L16.8179009,15.4916649 C16.3566397,14.9015136 15.7944775,14.3998849 15.1314145,14.0015328 C14.3530361,13.4703965 13.4305136,12.9835217 12.3638469,12.4966468 C11.2106937,11.8769879 10.0287118,11.3753592 8.84672977,10.977007 C8.83231536,12.349109 9.49537842,13.4261352 10.7782613,14.2228395 L10.7782613,14.2375933 C10.3314145,14.2375933 9.88456761,14.3113622 9.45213517,14.4441463 C9.53862166,15.7129717 10.4179009,16.5834449 12.0755586,17.055566 L12.0611442,17.0850736 C11.4124955,17.0408122 10.8791622,17.2768728 10.4611442,17.7637477 C11.0088919,18.8555277 11.9746577,19.3719101 13.3728559,19.3424025 C13.098982,19.4899404 12.8827658,19.6374782 12.7386217,19.8145236 C12.4791622,20.0948455 12.3926757,20.4194288 12.4791622,20.7882734 C12.7818649,21.3489172 13.3151982,21.5997315 14.107991,21.5554701 L14.1512343,21.6144853 L14.1368199,21.6439928 C12.7674505,23.0898637 11.1097928,23.7390302 9.1782613,23.6062461 L9.14943247,23.6209999 C7.96745049,23.6062461 6.69898202,23.0308485 5.32961265,21.8800534 C6.69898202,23.9013218 8.52961265,25.3619464 10.7926757,26.2914348 C13.3728559,27.161908 15.9674505,27.235677 18.5476307,26.483234 L18.5908739,26.483234 C21.098982,25.7455448 23.2179009,24.2111512 24.9764595,21.9095609 C25.7836667,20.7145044 26.2881712,19.5637093 26.489973,18.4571755 C27.8016847,18.5014369 28.7386217,18.1178385 29.3296127,17.2916266 L29.3151982,17.262119 C28.8683514,17.4244106 28.0179009,17.3801493 26.7638469,17.1145812 L26.7638469,16.9670433 C28.1476307,16.8047517 28.9692523,16.3473844 29.2287118,15.5949414 C28.262946,15.9785398 27.3115946,15.9932936 26.3746577,15.624449 C26.2016847,14.2966084 25.5818649,13.0720444 24.5151982,11.9655106" id="path-1"></path>
    </defs>
    <g id="Orders" stroke="none" stroke-width="1" fill="none" fill-rule="evenodd">
        <g id="order_2" transform="translate(-988.000000, -1981.000000)">
            <g id="Setup/Footer" transform="translate(0.000000, 1724.000000)">
                <g id="icon/social/twitter" transform="translate(988.000000, 257.000000)">
                    <rect id="Rectangle" x="0" y="0" width="36" height="36"></rect>
                    <mask id="mask-2" fill="white">
                        <use xlink:href="#path-1"></use>
                    </mask>
                    <use id="Mask" fill="#F2F2F3" xlink:href="#path-1"></use>
                </g>
            </g>
        </g>
    </g>
</svg>